<?xml version="1.0" encoding="UTF-8"?>
<svg width="34px" height="18px" viewBox="0 0 34 18" version="1.1" xmlns="http://www.w3.org/2000/svg" xmlns:xlink="http://www.w3.org/1999/xlink">
    <path transform="translate(-13, -19)" fill="#005da9" d="M45,19 C46.1045695,19 47,19.8954305 47,21 L47,29 L41,29 L41,21 L39,21 L37,23 L37,24.5 L38,24.5 L39,23.5 L39,29 L35,29 L35,21 L33,21 L31,23 L31,24.5 L32,24.5 L33,23.5 L33,29 L29,29 L29,21 L27,21 L20,29 L20,31 L27,31 L27,35 L29,35 L29,31 L47,31 L47,35 C47,36.1045695 46.1045695,37 45,37 L15,37 C13.8954305,37 13,36.1045695 13,35 L13,21 C13,19.8954305 13.8954305,19 15,19 L45,19 Z M16,31 L15,31 L15,35 L16,35 L16,33 L17,35 L18,33 L18,35 L19,35 L19,31 L18,31 L17,33 L16,31 Z M19,26 L15,26 L15,27.75 L18,29 L15,29 L15,30 L19,30 L19,28.25 L15.75,27 L19,27 L19,26 Z M27,24.037 L27,29 L22.657,29 L27,24.037 Z M19,21 L15,21 L15,25 L19,25 L19,21 Z M18,22 L18,24 L16,24 L16,22 L18,22 Z"></path>
</svg>