<?xml version="1.0" encoding="UTF-8"?>
<svg width="200px" height="200px" viewBox="0 0 200 200" version="1.1" xmlns="http://www.w3.org/2000/svg" xmlns:xlink="http://www.w3.org/1999/xlink">
    <g id="gitlab" transform="translate(8, 11)" fill="#000000" fill-rule="nonzero">
        <path d="M180.941074,70.067468 L180.682395,69.407111 L155.638474,4.11790801 C155.128937,2.83827282 154.226718,1.75275318 153.061269,1.01710153 C150.672626,-0.464106016 147.612657,-0.299809515 145.396718,1.42862832 C144.326865,2.29671161 143.550751,3.47299752 143.173998,4.79740572 L126.264082,56.4775137 L57.7908993,56.4775137 L40.8809835,4.79740572 C40.5142426,3.46578303 39.7364504,2.28360409 38.6582637,1.41905793 C36.4423244,-0.309379905 33.3823561,-0.473676406 30.9937126,1.00753114 C29.8308791,1.74615323 28.9294484,2.83072431 28.4165073,4.10833762 L3.32468327,69.3688295 L3.07558536,70.0291864 C-4.33075665,89.3599784 1.95919265,111.253572 18.5004944,123.719076 L18.5867206,123.786069 L18.8166571,123.948766 L56.9669601,152.48767 L75.8409171,166.757122 L87.3377437,175.427895 C90.1014867,177.524035 93.924753,177.524035 96.688496,175.427895 L108.185323,166.757122 L127.05928,152.48767 L165.439519,123.776499 L165.535326,123.699936 C182.037939,111.23331 188.315792,89.3780399 180.941074,70.067468 Z" id="Path"></path>
    </g>
</svg>